<svg xmlns="http://www.w3.org/2000/svg" width="824.811" height="261.598" viewBox="0 0 824.811 261.598"><g transform="translate(-736.414 -84.404)"><path d="M837.583,333.77l-88.933-88.919a42.022,42.022,0,0,1,0-59.286l88.933-88.923a42,42,0,0,1,59.273,0l59.269,59.293a41.988,41.988,0,0,1,0,59.283L896.842,274.5l29.65,29.622-29.65,29.622A41.974,41.974,0,0,1,837.583,333.77ZM778.3,215.225l88.919,88.923,29.623-29.622-29.623-29.65L926.5,185.582,867.22,126.31Z" transform="translate(0 0)" fill="#98ca3f"/><path d="M1081.034,217.245V171.3h-21.7V151.99h21.7V125.743h23.612v25.985h36.722v19.334h-36.718v45.777c0,27.06,16.971,29,38.881,21.259l2.366,18.039a91.331,91.331,0,0,1-26.522,4.509c-22.782,0-38.358-12.614-38.358-43.4Z" transform="translate(272.707 34.915)" fill="#2b2e32"/><path d="M964.909,229.843V113.63h23.839v116.2c0,17.622,4.733,23.2,22.989,20.195l.858,18.483A101.327,101.327,0,0,1,996.705,270c-21.68,0-31.827-10.9-31.827-40.159Z" transform="translate(192.938 24.684)" fill="#2b2e32"/><path d="M1098.046,215.248h-.21v-66.8a105.11,105.11,0,0,0-43.614-9.868c-34.552-.665-59.689,18.883-60.34,54.109h0c0,30.067,15.666,56.059,48.1,56.059a38.785,38.785,0,0,0,36.511-23.2v4.319c0,17.619,15.679,19.327,30.921,16.534V230.066C1097.836,231.155,1098.046,224.924,1098.046,215.248Zm-23.178-21.7c-.647,19.558-9.882,33.525-27.707,33.525-19.768,0-29.209-15.252-29.209-34.593h0c.637-23.006,14.374-34.589,34.582-34.589a56.927,56.927,0,0,1,22.341,4.509Z" transform="translate(217.431 45.741)" fill="#2b2e32"/><rect width="24.056" height="106.114" transform="translate(1534.8 186.66)" fill="#2b2e32"/><path d="M1112.084,245.956v-4.722l30.925-48.333,23.2-33.508h-50.682V139.835H1200.8v3.017l-32.86,50.9-21.7,31.6h54.33v20.626Z" transform="translate(317.253 46.815)" fill="#2b2e32"/><path d="M956.126,113.636H892.1V268.083h25.778V221.9h38.234c34.162,0,54.567-24.711,54.567-53.71C1010.69,138.76,990.491,113.636,956.126,113.636Zm-.21,85.712H917.245l.024-63.354h38.637c18.039,0,29.857,13.75,29.857,31.576S973.317,199.348,955.916,199.348Z" transform="translate(131.468 24.688)" fill="#2b2e32"/><path d="M1167.869,127.717a13.846,13.846,0,0,1,13.475-14.2c.386,0,.748,0,1.13.024a13.778,13.778,0,0,1,14.381,13.151v.021c0,.344.021.661,0,1a13.8,13.8,0,0,1-13.182,14.363h-.982a14.05,14.05,0,0,1-14.812-13.247v-.017a10.169,10.169,0,0,1,0-1.157Z" transform="translate(364.358 24.592)" fill="#2b2e32"/></g></svg>
